<svg width="17" height="22" viewBox="0 0 17 22" fill="none" xmlns="http://www.w3.org/2000/svg">
<path d="M16.494 5.24955L12.1026 0.858146C12.0203 0.775808 11.9088 0.729492 11.7921 0.729492H2.57019C1.60143 0.729492 0.81366 1.51727 0.81366 2.48606V20.0516C0.81366 21.0204 1.60143 21.8082 2.57023 21.8082H14.8661C15.8349 21.8082 16.6227 21.0204 16.6227 20.0516V5.56001C16.6227 5.44337 16.5763 5.33189 16.494 5.24955ZM12.2313 2.22875L15.1234 5.1209H13.1095C12.6254 5.1209 12.2313 4.72678 12.2313 4.24263V2.22875V2.22875ZM15.7444 20.0516C15.7444 20.5357 15.3503 20.9299 14.8661 20.9299H2.57023C2.08608 20.9299 1.69196 20.5357 1.69196 20.0516V2.48606C1.69196 2.00191 2.08608 1.6078 2.57023 1.6078H11.353V4.24263C11.353 5.21139 12.1408 5.99916 13.1096 5.99916H15.7444V20.0516Z" fill="#BFA583"/>
<path d="M10.9571 13.6202C10.5505 13.3003 10.1642 12.9714 9.90686 12.7141C9.57236 12.3796 9.27429 12.0554 9.01529 11.7466C9.41929 10.4982 9.5964 9.85456 9.5964 9.51145C9.5964 8.05381 9.06976 7.75488 8.27898 7.75488C7.67816 7.75488 6.96156 8.06707 6.96156 9.55349C6.96156 10.2088 7.32052 11.0043 8.03197 11.9289C7.85786 12.4602 7.65329 13.073 7.42344 13.7639C7.31278 14.0954 7.19273 14.4024 7.06576 14.6863C6.96243 14.7323 6.86206 14.779 6.76515 14.8274C6.41607 15.002 6.08458 15.1589 5.77708 15.3048C4.37473 15.9686 3.44843 16.4078 3.44843 17.2749C3.44843 17.9044 4.13245 18.2942 4.76584 18.2942C5.58235 18.2942 6.81529 17.2036 7.71587 15.3665C8.65074 14.9977 9.81295 14.7245 10.7302 14.5534C11.4653 15.1186 12.2771 15.6594 12.6703 15.6594C13.7592 15.6594 13.9878 15.0298 13.9878 14.5019C13.9878 13.4637 12.8016 13.4637 12.2312 13.4637C12.0541 13.4637 11.5789 13.516 10.9571 13.6202ZM4.76584 17.416C4.51496 17.416 4.34513 17.2976 4.32669 17.2749C4.32669 16.9635 5.25514 16.5235 6.15316 16.0981C6.21018 16.0711 6.26811 16.0441 6.32686 16.0162C5.66729 16.9726 5.015 17.416 4.76584 17.416ZM7.83983 9.55349C7.83983 8.63319 8.12546 8.63319 8.27898 8.63319C8.58948 8.63319 8.71813 8.63319 8.71813 9.51145C8.71813 9.69671 8.59463 10.1599 8.36861 10.8829C8.02377 10.352 7.83983 9.897 7.83983 9.55349ZM8.17647 14.2734C8.20393 14.1971 8.23053 14.1199 8.25626 14.0418C8.4192 13.5529 8.56589 13.1138 8.69668 12.7184C8.87894 12.9191 9.07536 13.1245 9.28594 13.335C9.36828 13.4174 9.5724 13.6026 9.84432 13.8346C9.30303 13.9526 8.72711 14.0988 8.17647 14.2734ZM13.1095 14.502C13.1095 14.6992 13.1095 14.7811 12.7021 14.7837C12.5824 14.758 12.3058 14.595 11.9645 14.3626C12.0884 14.3489 12.1797 14.342 12.2312 14.342C12.8801 14.342 13.064 14.4055 13.1095 14.502Z" fill="#BFA583"/>
</svg>
