<svg width="26" height="25" viewBox="0 0 26 25" fill="none" xmlns="http://www.w3.org/2000/svg">
<path d="M13.33 0.0685254C6.41408 -0.0248848 0.768084 5.62111 0.861494 12.537C0.953722 19.1697 6.35437 24.5704 12.9871 24.6626C19.9042 24.7572 25.549 19.1112 25.4544 12.1953C25.3633 5.5614 19.9627 0.160753 13.33 0.0685254ZM20.804 19.4157C20.7804 19.4411 20.7516 19.4611 20.7194 19.4742C20.6873 19.4872 20.6527 19.4931 20.6181 19.4913C20.5834 19.4895 20.5496 19.4801 20.519 19.4637C20.4884 19.4474 20.4618 19.4245 20.441 19.3968C19.9122 18.7049 19.2646 18.1126 18.5284 17.6474C17.0232 16.6814 15.116 16.1493 13.1585 16.1493C11.2011 16.1493 9.29384 16.6814 7.78863 17.6474C7.05251 18.1123 6.40491 18.7045 5.87609 19.3962C5.85531 19.4239 5.82868 19.4468 5.79808 19.4631C5.76748 19.4795 5.73366 19.4889 5.69902 19.4907C5.66438 19.4925 5.62977 19.4867 5.59763 19.4736C5.5655 19.4605 5.53664 19.4405 5.51309 19.4151C3.7783 17.5424 2.79561 15.0953 2.75335 12.5429C2.65698 6.78992 7.37774 1.97457 13.1331 1.96038C18.8885 1.94619 23.5637 6.61966 23.5637 12.3656C23.5657 14.9795 22.58 17.4977 20.804 19.4157Z" fill="#828282"/>
<path d="M13.1582 5.74414C11.9923 5.74414 10.9382 6.18104 10.1892 6.97503C9.44011 7.76901 9.06588 8.86688 9.15042 10.0451C9.32187 12.3656 11.1197 14.2575 13.1582 14.2575C15.1967 14.2575 16.991 12.3656 17.166 10.0457C17.2535 8.8787 16.8822 7.79089 16.1207 6.98212C15.3687 6.184 14.3164 5.74414 13.1582 5.74414Z" fill="#828282"/>
</svg>
