<svg width="17" height="22" viewBox="0 0 17 22" fill="none" xmlns="http://www.w3.org/2000/svg">
<path d="M16.4355 8.88473V18.2858C16.4355 18.9004 16.1914 19.4897 15.7569 19.9243C15.3223 20.3588 14.733 20.6029 14.1185 20.6029H3.30537C2.69084 20.6029 2.10148 20.3588 1.66694 19.9243C1.2324 19.4897 0.988281 18.9004 0.988281 18.2858V2.83857C0.988281 2.22404 1.2324 1.63468 1.66694 1.20014C2.10148 0.765606 2.69084 0.521484 3.30537 0.521484H8.0723C8.48185 0.521546 8.8746 0.684241 9.16423 0.9738L15.9832 7.7928C16.2728 8.08243 16.4355 8.47519 16.4355 8.88473Z" stroke="#BFA583" stroke-linejoin="round"/>
<path d="M8.71143 0.907227V6.69995C8.71143 7.10964 8.87417 7.50254 9.16387 7.79224C9.45356 8.08193 9.84647 8.24468 10.2562 8.24468H16.0489M4.84961 12.1065H12.5732M4.84961 15.9683H12.5732" stroke="#BFA583" stroke-linecap="round" stroke-linejoin="round"/>
</svg>
