<svg width="17" height="22" viewBox="0 0 17 22" fill="none" xmlns="http://www.w3.org/2000/svg">
<path d="M13.825 0.779297L13.8466 1.24045C13.8599 1.50506 13.7932 1.70733 13.645 1.86063C13.4452 2.06544 13.1208 2.16849 12.8486 2.21492C12.8588 1.97894 12.8683 1.74104 12.8759 1.49488C12.4822 1.49488 10.401 1.49488 8.32481 1.49488C8.3229 1.49488 8.32163 1.49488 8.31972 1.49488C6.24293 1.49488 4.16296 1.49488 3.76923 1.49488C3.77686 1.74104 3.78704 1.97894 3.79722 2.21492C3.52434 2.16849 3.20058 2.06481 3.00021 1.85999C2.85074 1.70733 2.78395 1.50442 2.79731 1.23982L2.81957 0.779297H0.408203L0.416472 1.22709C0.550048 8.93062 3.81121 10.7956 5.30408 11.2453L5.05919 11.5932L5.77796 12.1002L6.02349 11.7497C6.51454 12.6644 6.94262 13.2483 7.12517 13.7152H6.79187V14.413H7.19896C7.03421 15.4905 4.85565 16.7385 4.85565 16.7385V17.3962H4.32135V21.1337H8.31909H8.32417H12.3219V17.3962H11.7889V16.7385C11.7889 16.7385 9.60968 15.4905 9.44494 14.413H9.85203V13.7152H9.51936C9.70192 13.2489 10.13 12.6663 10.621 11.7497L10.8659 12.1002L11.586 11.5932L11.3404 11.2453C12.834 10.7956 16.0951 8.93062 16.2287 1.22709L16.2363 0.779297H13.825ZM1.30698 1.65899H1.95005C2.01048 1.97512 2.1536 2.25309 2.37368 2.47762C2.81384 2.92605 3.44547 3.06154 3.84747 3.10352C4.08218 6.49381 4.70744 8.7576 5.35688 10.3376C4.079 9.86947 1.53088 8.12789 1.30698 1.65899ZM11.287 10.3376C11.9365 8.7576 12.5617 6.49381 12.7964 3.10352C13.1991 3.06154 13.8301 2.92605 14.2696 2.47762C14.4909 2.25309 14.6334 1.97512 14.6938 1.65899H15.3369C15.1143 8.12789 12.5655 9.86947 11.287 10.3376Z" fill="#BFA583"/>
</svg>
