<svg width="28" height="17" viewBox="0 0 28 17" fill="none" xmlns="http://www.w3.org/2000/svg">
<path d="M15.1662 16.9958C6.05377 16.9958 0.856213 10.6248 0.639648 0.0234375H5.20417C5.3541 7.80454 8.71918 11.1005 11.3846 11.78V0.0234375H15.6826V6.73421C18.3147 6.4454 21.08 3.38732 22.0129 0.0234375H26.3109C25.9594 1.76804 25.2586 3.41991 24.2525 4.8757C23.2464 6.3315 21.9566 7.55992 20.4637 8.48411C22.1301 9.32858 23.602 10.5238 24.7822 11.991C25.9624 13.4582 26.8241 15.164 27.3104 16.9958H22.5793C22.1428 15.4047 21.2554 13.9805 20.0286 12.9016C18.8017 11.8226 17.2899 11.137 15.6826 10.9306V16.9958H15.1662Z" fill="#BFA583"/>
<path d="M15.1662 16.9958C6.05377 16.9958 0.856213 10.6248 0.639648 0.0234375H5.20417C5.3541 7.80454 8.71918 11.1005 11.3846 11.78V0.0234375H15.6826V6.73421C18.3147 6.4454 21.08 3.38732 22.0129 0.0234375H26.3109C25.9594 1.76804 25.2586 3.41991 24.2525 4.8757C23.2464 6.3315 21.9566 7.55992 20.4637 8.48411C22.1301 9.32858 23.602 10.5238 24.7822 11.991C25.9624 13.4582 26.8241 15.164 27.3104 16.9958H22.5793C22.1428 15.4047 21.2554 13.9805 20.0286 12.9016C18.8017 11.8226 17.2899 11.137 15.6826 10.9306V16.9958H15.1662Z" fill="#BFA583"/>
<path d="M15.1662 16.9958C6.05377 16.9958 0.856213 10.6248 0.639648 0.0234375H5.20417C5.3541 7.80454 8.71918 11.1005 11.3846 11.78V0.0234375H15.6826V6.73421C18.3147 6.4454 21.08 3.38732 22.0129 0.0234375H26.3109C25.9594 1.76804 25.2586 3.41991 24.2525 4.8757C23.2464 6.3315 21.9566 7.55992 20.4637 8.48411C22.1301 9.32858 23.602 10.5238 24.7822 11.991C25.9624 13.4582 26.8241 15.164 27.3104 16.9958H22.5793C22.1428 15.4047 21.2554 13.9805 20.0286 12.9016C18.8017 11.8226 17.2899 11.137 15.6826 10.9306V16.9958H15.1662Z" fill="#BFA583"/>
</svg>
