<svg width="18" height="18" viewBox="0 0 18 18" fill="none" xmlns="http://www.w3.org/2000/svg">
<path d="M11.4971 4.063V17.188M5.87207 0.938003V14.063M10.9217 3.93175L6.44746 1.06925C6.26949 0.98035 6.07286 0.935211 5.87393 0.937589C5.675 0.939967 5.47951 0.989793 5.30371 1.08292L0.891992 4.04308C0.791623 4.09625 0.707641 4.17577 0.649072 4.27309C0.590503 4.3704 0.55956 4.48184 0.55957 4.59542V16.1501C0.559561 16.2579 0.587426 16.3639 0.640461 16.4577C0.693495 16.5515 0.769894 16.63 0.86224 16.6856C0.954585 16.7412 1.05974 16.772 1.16748 16.7749C1.27523 16.7779 1.3819 16.7529 1.47715 16.7025L5.29824 14.2107C5.47548 14.1168 5.6727 14.0669 5.87327 14.0653C6.07383 14.0636 6.27185 14.1103 6.45059 14.2013L10.8201 17.0528C10.9973 17.1431 11.1935 17.1898 11.3923 17.1891C11.5912 17.1883 11.787 17.1402 11.9635 17.0485L16.4725 14.0821C16.5741 14.0294 16.6592 13.9498 16.7187 13.852C16.7781 13.7542 16.8096 13.6419 16.8096 13.5275V1.97589C16.8096 1.86811 16.7817 1.76215 16.7287 1.66832C16.6756 1.57448 16.5992 1.49596 16.5069 1.44037C16.4146 1.38478 16.3094 1.35402 16.2017 1.35107C16.0939 1.34812 15.9872 1.37309 15.892 1.42355L12.0639 3.91808C11.8883 4.01095 11.6931 4.06064 11.4944 4.06301C11.2958 4.06539 11.0995 4.02039 10.9217 3.93175V3.93175Z" stroke="#BFA583" stroke-linecap="round" stroke-linejoin="round"/>
</svg>
