<svg width="21" height="21" viewBox="0 0 21 21" fill="none" xmlns="http://www.w3.org/2000/svg">
<path d="M20.1185 10.5339C20.1185 5.09974 15.7097 0.690918 10.2756 0.690918C4.84144 0.690918 0.432617 5.09974 0.432617 10.5339C0.432617 15.968 4.84144 20.3768 10.2756 20.3768C15.7097 20.3768 20.1185 15.968 20.1185 10.5339Z" stroke="white" stroke-opacity="0.4" stroke-width="0.826489" stroke-miterlimit="10"/>
<path d="M9.98175 5.92235L10.276 12.1742L10.5698 5.92235C10.5716 5.88239 10.5652 5.84247 10.5511 5.80504C10.537 5.76761 10.5153 5.73346 10.4876 5.70467C10.4598 5.67588 10.4264 5.65306 10.3895 5.6376C10.3526 5.62214 10.3129 5.61437 10.2729 5.61476V5.61476C10.2334 5.61513 10.1944 5.62347 10.1581 5.63926C10.1219 5.65506 10.0892 5.678 10.062 5.70671C10.0348 5.73542 10.0137 5.76931 9.99993 5.80636C9.98614 5.84341 9.97996 5.88286 9.98175 5.92235V5.92235Z" stroke="white" stroke-opacity="0.4" stroke-width="0.826489" stroke-linecap="round" stroke-linejoin="round"/>
<path d="M10.2753 16.2708C10.0725 16.2708 9.87429 16.2107 9.70568 16.098C9.53707 15.9854 9.40565 15.8252 9.32805 15.6379C9.25044 15.4505 9.23014 15.2444 9.2697 15.0455C9.30926 14.8466 9.40691 14.6639 9.55031 14.5205C9.6937 14.3771 9.87639 14.2795 10.0753 14.2399C10.2742 14.2004 10.4803 14.2207 10.6677 14.2983C10.855 14.3759 11.0152 14.5073 11.1278 14.6759C11.2405 14.8445 11.3006 15.0427 11.3006 15.2455C11.3006 15.5175 11.1926 15.7782 11.0003 15.9705C10.808 16.1628 10.5472 16.2708 10.2753 16.2708Z" fill="white" fill-opacity="0.4"/>
</svg>
