<svg width="27" height="18" viewBox="0 0 27 18" fill="none" xmlns="http://www.w3.org/2000/svg">
<path d="M14.5968 17.4098C5.48443 17.4098 0.286877 11.0388 0.0703125 0.4375H4.63483C4.78476 8.2186 8.14985 11.5145 10.8153 12.1941V0.4375H15.1132V7.14828C17.7453 6.85946 20.5107 3.80138 21.4436 0.4375H25.7416C25.39 2.18211 24.6893 3.83397 23.6832 5.28977C22.6771 6.74556 21.3872 7.97398 19.8943 8.89818C21.5607 9.74264 23.0326 10.9379 24.2128 12.4051C25.3931 13.8723 26.2548 15.5781 26.7411 17.4098H22.01C21.5734 15.8188 20.6861 14.3946 19.4592 13.3156C18.2324 12.2367 16.7206 11.5511 15.1132 11.3446V17.4098H14.5968Z" fill="#4A4A4A"/>
</svg>
