<svg width="23" height="21" viewBox="0 0 23 21" fill="none" xmlns="http://www.w3.org/2000/svg">
<path d="M18.5791 12.2839C16.3275 12.2839 14.4951 14.1158 14.4951 16.3679C14.4951 16.6188 14.6984 16.8217 14.9489 16.8217C15.1994 16.8217 15.4027 16.6188 15.4027 16.3679C15.4027 14.6167 16.8276 13.1914 18.5791 13.1914C20.3307 13.1914 21.7556 14.6167 21.7556 16.3679C21.7556 18.119 20.3307 19.5443 18.5791 19.5443H2.24861C2.03897 19.5388 1.78938 19.4563 1.78938 19.0905V6.39021C1.79482 6.18057 1.87786 5.93098 2.24317 5.93098H14.9489C15.1994 5.93098 15.4027 5.72814 15.4027 5.47719C15.4027 5.22623 15.1994 5.02344 14.9489 5.02344H2.24317C1.24442 5.02344 0.881836 5.83751 0.881836 6.38477V19.0905C0.881836 20.0893 1.69591 20.4519 2.24317 20.4519H18.5791C20.8308 20.4519 22.6631 18.62 22.6631 16.3679C22.6631 14.1158 20.8308 12.2839 18.5791 12.2839Z" fill="#BFA583"/>
<path d="M18.5792 0.486328C16.3275 0.486328 14.4952 2.31821 14.4952 4.57032V15.9148C14.4952 16.1657 14.6985 16.3685 14.949 16.3685C15.1995 16.3685 15.4028 16.1657 15.4028 15.9148V4.57032C15.4028 2.81918 16.8276 1.39387 18.5792 1.39387C20.3308 1.39387 21.7557 2.81918 21.7557 4.57032V16.3685C21.7557 16.6195 21.959 16.8223 22.2095 16.8223C22.4599 16.8223 22.6632 16.6195 22.6632 16.3685V4.57032C22.6632 2.31825 20.8308 0.486328 18.5792 0.486328Z" fill="#BFA583"/>
<path d="M12.9994 16.2214H9.00258V14.9791C10.724 14.8516 12.0778 13.6659 12.0778 12.2252C12.0641 11.7908 11.9421 11.3667 11.7231 10.9914C11.504 10.616 11.1947 10.3013 10.8233 10.0757C10.839 9.97321 10.8469 9.8697 10.847 9.76604C10.847 9.19535 10.6203 8.64804 10.2167 8.2445C9.81318 7.84096 9.26587 7.61426 8.69518 7.61426C8.1245 7.61426 7.57718 7.84096 7.17364 8.2445C6.77011 8.64804 6.5434 9.19535 6.5434 9.76604C6.54346 9.86998 6.5514 9.97377 6.56713 10.0765C6.196 10.3022 5.88702 10.6168 5.66817 10.992C5.44933 11.3672 5.32753 11.7911 5.31381 12.2252C5.31381 13.6656 6.66698 14.8512 8.38779 14.979V16.2214H4.39224C4.31071 16.2214 4.23252 16.2538 4.17487 16.3114C4.11723 16.3691 4.08484 16.4473 4.08484 16.5288C4.08484 16.6103 4.11723 16.6885 4.17487 16.7461C4.23252 16.8038 4.31071 16.8362 4.39224 16.8362H12.9994C13.0809 16.8362 13.1591 16.8038 13.2167 16.7461C13.2744 16.6885 13.3068 16.6103 13.3068 16.5288C13.3068 16.4473 13.2744 16.3691 13.2167 16.3114C13.1591 16.2538 13.0809 16.2214 12.9994 16.2214V16.2214ZM5.92861 12.2252C5.94761 11.8618 6.06267 11.5099 6.26205 11.2055C6.46142 10.9011 6.73799 10.655 7.06352 10.4924C7.12202 10.4589 7.16793 10.4072 7.19417 10.3452C7.22042 10.2831 7.22556 10.2142 7.20879 10.1489C7.14899 9.92155 7.14216 9.68348 7.18881 9.45304C7.23546 9.2226 7.33436 9.00593 7.47789 8.81971C7.62142 8.63349 7.80576 8.48269 8.01673 8.37889C8.22769 8.2751 8.45966 8.22109 8.69477 8.22102C8.92989 8.22095 9.16189 8.27482 9.37291 8.37849C9.58394 8.48215 9.76837 8.63285 9.91202 8.81898C10.0557 9.00512 10.1547 9.22172 10.2015 9.45213C10.2483 9.68255 10.2416 9.92062 10.1819 10.148C10.1651 10.2133 10.1702 10.2823 10.1965 10.3444C10.2227 10.4065 10.2687 10.4582 10.3272 10.4916C10.6529 10.6543 10.9297 10.9004 11.1292 11.205C11.3288 11.5096 11.4439 11.8616 11.463 12.2252C11.463 13.331 10.3845 14.2438 9.00258 14.363V12.66L9.83473 11.8278C9.89093 11.7699 9.92209 11.6922 9.92147 11.6115C9.92086 11.5308 9.88852 11.4535 9.83144 11.3964C9.77436 11.3394 9.69713 11.307 9.61641 11.3064C9.5357 11.3058 9.45798 11.337 9.40004 11.3932L9.00258 11.7906V10.3808C9.00258 10.2993 8.97019 10.2211 8.91255 10.1635C8.8549 10.1058 8.77671 10.0734 8.69518 10.0734C8.61366 10.0734 8.53547 10.1058 8.47782 10.1635C8.42017 10.2211 8.38779 10.2993 8.38779 10.3808V13.1878L7.9435 12.8917C7.90993 12.8687 7.87213 12.8526 7.83231 12.8444C7.79248 12.8361 7.75141 12.8359 7.71148 12.8436C7.67155 12.8514 7.63355 12.8669 7.59969 12.8895C7.56583 12.912 7.53678 12.941 7.51421 12.9749C7.49165 13.0087 7.47603 13.0467 7.46826 13.0866C7.46048 13.1266 7.46071 13.1676 7.46892 13.2075C7.47713 13.2473 7.49317 13.2851 7.5161 13.3187C7.53903 13.3523 7.5684 13.381 7.60251 13.4032L8.38779 13.9267V14.3628C7.00653 14.2432 5.92861 13.3307 5.92861 12.2252V12.2252Z" fill="#BFA583"/>
</svg>
