<svg width="21" height="21" viewBox="0 0 21 21" fill="none" xmlns="http://www.w3.org/2000/svg">
<path d="M11.7647 5.32812H8.48364C8.14529 5.32812 7.87099 5.60242 7.87099 5.94077V10.5778H7.17124C6.83289 10.5778 6.55859 10.8521 6.55859 11.1904C6.55859 11.5287 6.83289 11.8031 7.17124 11.8031H7.87099V13.2026H7.17124C6.83289 13.2026 6.55859 13.4769 6.55859 13.8153C6.55859 14.1536 6.83289 14.4279 7.17124 14.4279H7.87099V15.7839C7.87099 16.1222 8.14529 16.3965 8.48364 16.3965C8.82198 16.3965 9.09628 16.1222 9.09628 15.7839V14.4279H11.7647C12.103 14.4279 12.3773 14.1536 12.3773 13.8153C12.3773 13.4769 12.103 13.2026 11.7647 13.2026H9.09628V11.8031H11.7647C13.5499 11.8031 15.0022 10.3507 15.0022 8.56557C15.0021 6.7363 13.5121 5.32812 11.7647 5.32812ZM11.7647 10.5778H9.09628V6.55341H11.7647C12.8675 6.55341 13.7769 7.44296 13.7769 8.56561C13.7769 9.67514 12.8742 10.5778 11.7647 10.5778Z" fill="#CAB696"/>
<circle cx="10.7803" cy="10.8623" r="9.5" stroke="#BFA583"/>
</svg>
