<svg width="30" height="21" viewBox="0 0 30 21" fill="none" xmlns="http://www.w3.org/2000/svg">
<path d="M29.2917 3.18761C28.9557 1.9675 27.9709 1.00571 26.7219 0.677173C24.4402 0.0673828 15.3131 0.0673828 15.3131 0.0673828C15.3131 0.0673828 6.18641 0.0673828 3.90469 0.654054C2.67974 0.982243 1.67084 1.96768 1.33484 3.18761C0.734375 5.41609 0.734375 10.0377 0.734375 10.0377C0.734375 10.0377 0.734375 14.6825 1.33484 16.8877C1.6712 18.1077 2.65571 19.0695 3.90486 19.398C6.21043 20.008 15.3135 20.008 15.3135 20.008C15.3135 20.008 24.4402 20.008 26.7219 19.4213C27.971 19.0929 28.9557 18.1311 29.2921 16.9112C29.8924 14.6825 29.8924 10.0611 29.8924 10.0611C29.8924 10.0611 29.9164 5.41609 29.2917 3.18761ZM12.4073 14.3072V5.76809L19.9969 10.0377L12.4073 14.3072Z" fill="#BFA583"/>
</svg>
