<svg width="21" height="21" viewBox="0 0 21 21" fill="none" xmlns="http://www.w3.org/2000/svg">
<circle cx="10.4355" cy="10.5635" r="9.5" stroke="#BFA583"/>
<path d="M12.5727 6.16526C12.0301 5.57944 11.2723 5.25684 10.4358 5.25684C9.59485 5.25684 8.83448 5.57749 8.29439 6.15968C7.74844 6.74829 7.48244 7.54825 7.5449 8.41207C7.6687 10.1163 8.96553 11.5026 10.4358 11.5026C11.9061 11.5026 13.2007 10.1165 13.3264 8.41262C13.3897 7.55662 13.122 6.75833 12.5727 6.16526ZM15.7156 18.2744L13.857 19.4042L10.4358 19.7989L7.36562 19.4042L5.63748 18.6958C5.40944 19.2428 4.83683 18.1848 4.83683 17.7484C4.51768 17.8274 4.73578 17.847 4.65344 17.7484C4.4722 17.5317 4.59934 16.9256 4.65344 16.6264C4.88877 15.3209 5.6232 14.2243 6.77756 13.4544C7.80309 12.771 9.10216 12.3949 10.4358 12.3949C11.7694 12.3949 13.0685 12.7713 14.094 13.4544C15.2484 14.224 15.9828 15.3206 16.2182 16.6261C16.2722 16.9253 16.3995 17.5317 16.2182 17.7484C16.1359 17.8471 16.2116 18.2206 16.0949 18.2744C15.9782 18.3281 15.8441 18.276 15.7156 18.2744Z" fill="#BFA583"/>
</svg>
