<svg width="31" height="21" viewBox="0 0 31 21" fill="none" xmlns="http://www.w3.org/2000/svg">
<path d="M29.4695 4.0753C29.1335 2.8552 28.1486 1.8934 26.8996 1.56487C24.6179 0.955078 15.4908 0.955078 15.4908 0.955078C15.4908 0.955078 6.36414 0.955078 4.08242 1.54175C2.85747 1.86994 1.84857 2.85537 1.51257 4.0753C0.912109 6.30378 0.912109 10.9254 0.912109 10.9254C0.912109 10.9254 0.912109 15.5702 1.51257 17.7754C1.84893 18.9954 2.83345 19.9572 4.0826 20.2857C6.38817 20.8957 15.4912 20.8957 15.4912 20.8957C15.4912 20.8957 24.6179 20.8957 26.8996 20.309C28.1488 19.9806 29.1335 19.0188 29.4698 17.7989C30.0701 15.5702 30.0701 10.9488 30.0701 10.9488C30.0701 10.9488 30.0941 6.30378 29.4695 4.0753ZM12.585 15.1949V6.65579L20.1746 10.9254L12.585 15.1949Z" fill="#4A4A4A"/>
</svg>
