<svg width="50" height="41" viewBox="0 0 50 41" fill="none" xmlns="http://www.w3.org/2000/svg">
<path d="M49.2188 0.495117H0.78125C0.349219 0.495117 0 0.841782 0 1.27065C0 1.69953 0.349219 2.04619 0.78125 2.04619H13.2586V17.5903C8.02344 17.9889 3.88281 22.335 3.88281 27.6327C3.88281 27.6552 3.89453 27.6746 3.89609 27.6963V31.5228C3.89609 31.9517 4.24531 32.2983 4.67734 32.2983H10.232C10.5914 34.0658 12.168 35.402 14.0531 35.402C15.9383 35.402 17.5148 34.0658 17.8742 32.2983H23.4266H23.4273C23.8594 32.2983 24.2086 31.9517 24.2086 31.5228V27.6405C24.2086 27.611 24.1945 27.5862 24.1922 27.5583C24.1523 22.2955 20.0312 17.9874 14.8219 17.5903V2.04619H49.2188C49.6508 2.04619 50 1.69953 50 1.27065C50 0.841782 49.6508 0.495117 49.2188 0.495117ZM14.0523 33.851C13.0359 33.851 12.1789 33.1995 11.857 32.2983H16.2469C15.9266 33.1995 15.0687 33.851 14.0523 33.851ZM22.6328 27.6327C22.6328 27.6552 22.6445 27.6746 22.6461 27.6963V30.7473H5.45859V27.642C5.45859 27.6234 5.44922 27.6071 5.44766 27.5893C5.47109 22.912 9.30547 19.1127 14.0219 19.1034C14.0281 19.1034 14.0344 19.1072 14.0398 19.1072C14.0453 19.1072 14.0516 19.1034 14.0578 19.1034C18.7875 19.1134 22.6328 22.9353 22.6328 27.6327Z" fill="#BFA583"/>
<path d="M14.834 40.0538V37.7272C14.834 37.2983 14.4848 36.9517 14.0527 36.9517C13.6207 36.9517 13.2715 37.2983 13.2715 37.7272V40.0538C13.2715 40.4827 13.6207 40.8293 14.0527 40.8293C14.4848 40.8293 14.834 40.4827 14.834 40.0538Z" fill="#BFA583"/>
<path d="M19.5674 38.5902C19.7674 38.5902 19.9674 38.5142 20.1197 38.363C20.4252 38.0598 20.4252 37.5696 20.1197 37.2664L18.4627 35.6215C18.1572 35.3182 17.6635 35.3182 17.358 35.6215C17.0525 35.9247 17.0525 36.4148 17.358 36.7181L19.015 38.363C19.1674 38.515 19.3674 38.5902 19.5674 38.5902Z" fill="#BFA583"/>
<path d="M9.08965 38.3166L10.7451 36.6717C11.0506 36.3685 11.0506 35.8775 10.7451 35.5751C10.4396 35.2718 9.9459 35.2718 9.64043 35.5751L7.98496 37.22C7.67949 37.5232 7.67949 38.0141 7.98496 38.3166C8.1373 38.4678 8.3373 38.5438 8.5373 38.5438C8.7373 38.5438 8.93652 38.4678 9.08965 38.3166Z" fill="#BFA583"/>
<path d="M42.9703 40.8169C44.6938 40.8169 46.0953 39.4255 46.0953 37.7147V35.3897V15.9935V14.4439C46.0953 12.7331 44.6938 11.3418 42.9703 11.3418H32.0273C30.3039 11.3418 28.9023 12.7331 28.9023 14.4439V15.9935V35.3897V37.7147C28.9023 39.4255 30.3039 40.8169 32.0273 40.8169H42.9703ZM37.5219 36.9392C37.9531 36.9392 38.3031 36.5925 38.3031 36.1636C38.3031 35.7379 37.957 35.3943 37.5297 35.3897H44.5328C44.5328 36.2451 43.832 36.9407 42.9703 36.9407H32.0273C31.1656 36.9407 30.4648 36.2451 30.4648 35.3897H37.5063C37.0789 35.3943 36.7375 35.7379 36.7375 36.1636C36.7367 36.5925 37.0906 36.9392 37.5219 36.9392ZM30.4648 14.4439C30.4648 13.5885 31.1656 12.8929 32.0273 12.8929H42.9703C43.832 12.8929 44.5328 13.5885 44.5328 14.4439V15.9935V33.8386H30.4648V15.9935V14.4439ZM30.5164 38.0885C30.9656 38.3375 31.4766 38.4926 32.0281 38.4926H42.9711C43.5219 38.4926 44.032 38.3382 44.4828 38.0885C44.3133 38.7625 43.7023 39.2666 42.9711 39.2666H32.0273C31.2969 39.2658 30.6852 38.7625 30.5164 38.0885Z" fill="#BFA583"/>
<path d="M34.3719 25.668V26.8615V28.4142C34.3719 28.515 34.3922 28.6158 34.432 28.7104C34.4719 28.8058 34.5289 28.8919 34.6016 28.9632L35.3828 29.7388C35.4547 29.8109 35.5414 29.8675 35.6375 29.9071C35.7328 29.9466 35.8344 29.9668 35.9359 29.9668H36.7164C36.7172 30.3949 37.0664 30.7408 37.4977 30.7408C37.9289 30.7408 38.2781 30.3949 38.2789 29.9668H39.0617C39.1633 29.9668 39.2648 29.9466 39.3602 29.9071C39.4563 29.8675 39.543 29.8109 39.6148 29.7388L40.3961 28.9632C40.4688 28.8919 40.5258 28.8058 40.5656 28.7104C40.6055 28.6158 40.6258 28.515 40.6258 28.4142V26.8615C40.6258 26.86 40.625 26.8592 40.625 26.8577V25.6703C41.6195 24.7885 42.1875 23.5515 42.1875 22.2099C42.1875 19.6436 40.0852 17.5566 37.5 17.5566C34.9148 17.5566 32.8125 19.6436 32.8125 22.2099C32.8125 23.5508 33.3789 24.7862 34.3719 25.668ZM39.0633 27.6371V28.0931L38.7383 28.4157H37.5055C37.5023 28.4157 37.5 28.4142 37.4977 28.4142C37.4953 28.4142 37.493 28.4157 37.4898 28.4157H36.2594L35.9344 28.0931V27.6371H39.0633ZM37.5 19.1077C39.2234 19.1077 40.625 20.499 40.625 22.2099C40.625 23.1956 40.1695 24.0998 39.3742 24.6916C39.3586 24.7032 39.3523 24.7195 39.3383 24.7319C39.2969 24.7676 39.2641 24.8079 39.2312 24.8513C39.2016 24.8893 39.1727 24.9258 39.1516 24.9677C39.1297 25.0111 39.1172 25.0569 39.1031 25.1049C39.0883 25.1554 39.0758 25.2058 39.0719 25.2585C39.0719 25.2771 39.0625 25.2934 39.0625 25.312V26.086H38.2789V23.7625H38.2812C38.7133 23.7625 39.0625 23.4158 39.0625 22.987C39.0625 22.5581 38.7133 22.2114 38.2812 22.2114H36.7188C36.2867 22.2114 35.9375 22.5581 35.9375 22.987C35.9375 23.415 36.2852 23.7609 36.7164 23.7617V26.086H35.9344V25.3105C35.9344 25.2918 35.925 25.2756 35.9234 25.2569C35.9195 25.205 35.907 25.1554 35.8922 25.1049C35.8781 25.0561 35.8664 25.0103 35.8438 24.9661C35.8234 24.925 35.7945 24.8893 35.7656 24.8521C35.732 24.8079 35.6984 24.766 35.6555 24.7296C35.6414 24.7179 35.6359 24.7024 35.6211 24.6916C34.8297 24.0991 34.375 23.1948 34.375 22.2099C34.375 20.499 35.7766 19.1077 37.5 19.1077Z" fill="#BFA583"/>
</svg>
