<svg width="54" height="38" viewBox="0 0 54 38" fill="none" xmlns="http://www.w3.org/2000/svg">
<path d="M52.5999 13.5166C52.0103 13.5166 51.5332 13.9942 51.5332 14.5833V23.1062C51.5332 23.6952 52.0103 24.1729 52.5999 24.1729C53.1895 24.1729 53.6665 23.6952 53.6665 23.1062V14.5833C53.6665 13.9942 53.1895 13.5166 52.5999 13.5166Z" fill="#BFA583"/>
<path d="M49.0962 30.0236V7.66628C49.0962 7.07721 48.6191 6.59961 48.0296 6.59961C47.44 6.59961 46.9629 7.07721 46.9629 7.66628V30.0236C46.9629 30.6126 47.44 31.0902 48.0296 31.0902C48.6191 31.0902 49.0962 30.6126 49.0962 30.0236Z" fill="#BFA583"/>
<path d="M44.5259 23.1062V14.5833C44.5259 13.9942 44.0488 13.5166 43.4592 13.5166C42.8697 13.5166 42.3926 13.9942 42.3926 14.5833V23.1062C42.3926 23.6952 42.8697 24.1729 43.4592 24.1729C44.0488 24.1729 44.5259 23.6952 44.5259 23.1062Z" fill="#BFA583"/>
<path d="M39.9556 30.0236V7.66628C39.9556 7.07721 39.4785 6.59961 38.8889 6.59961C38.2993 6.59961 37.8223 7.07721 37.8223 7.66628V30.0236C37.8223 30.6126 38.2993 31.0902 38.8889 31.0902C39.4785 31.0902 39.9556 30.6126 39.9556 30.0236Z" fill="#BFA583"/>
<path d="M35.1392 36.4471V1.24294C35.1392 0.653874 34.6621 0.17627 34.0725 0.17627C33.4829 0.17627 33.0059 0.653874 33.0059 1.24294V36.4471C33.0059 37.0362 33.4829 37.5138 34.0725 37.5138C34.6621 37.5138 35.1392 37.0362 35.1392 36.4471Z" fill="#BFA583"/>
<path d="M30.5689 29.6531V8.03639C30.5689 7.44733 30.0918 6.96973 29.5022 6.96973C28.9126 6.96973 28.4355 7.44733 28.4355 8.03639V29.6531C28.4355 30.2421 28.9126 30.7197 29.5022 30.7197C30.0918 30.7197 30.5689 30.2421 30.5689 29.6531Z" fill="#BFA583"/>
<path d="M25.5044 21.4544V16.2356C25.5044 15.6465 25.0273 15.1689 24.4378 15.1689C23.8482 15.1689 23.3711 15.6465 23.3711 16.2356V21.4544C23.3711 22.0434 23.8482 22.521 24.4378 22.521C25.0273 22.521 25.5044 22.0434 25.5044 21.4544Z" fill="#BFA583"/>
<path d="M21.3189 24.2334V13.4563C21.3189 12.8673 20.8418 12.3896 20.2522 12.3896C19.6626 12.3896 19.1855 12.8673 19.1855 13.4563V24.2334C19.1855 24.8225 19.6626 25.3001 20.2522 25.3001C20.8418 25.3001 21.3189 24.8225 21.3189 24.2334Z" fill="#BFA583"/>
<path d="M16.4243 29.3444V8.34548C16.4243 7.75641 15.9473 7.27881 15.3577 7.27881C14.7681 7.27881 14.291 7.75641 14.291 8.34548V29.3444C14.291 29.9335 14.7681 30.4111 15.3577 30.4111C15.9473 30.4111 16.4243 29.9335 16.4243 29.3444Z" fill="#BFA583"/>
<path d="M11.854 36.076V1.61354C11.854 1.02448 11.377 0.546875 10.7874 0.546875C10.1978 0.546875 9.7207 1.02448 9.7207 1.61354V36.076C9.7207 36.6651 10.1978 37.1427 10.7874 37.1427C11.377 37.1427 11.854 36.6651 11.854 36.076Z" fill="#BFA583"/>
<path d="M7.00638 28.7267V8.96315C7.00638 8.37409 6.5293 7.89648 5.93971 7.89648C5.35013 7.89648 4.87305 8.37409 4.87305 8.96315V28.7267C4.87305 29.3158 5.35013 29.7934 5.93971 29.7934C6.5293 29.7934 7.00638 29.3158 7.00638 28.7267Z" fill="#BFA583"/>
<path d="M1.40065 25.3001C1.99023 25.3001 2.46732 24.8225 2.46732 24.2334V13.4563C2.46732 12.8673 1.99023 12.3896 1.40065 12.3896C0.811068 12.3896 0.333984 12.8673 0.333984 13.4563V24.2334C0.333984 24.8225 0.811068 25.3001 1.40065 25.3001Z" fill="#BFA583"/>
</svg>
