<svg width="42" height="41" viewBox="0 0 42 41" fill="none" xmlns="http://www.w3.org/2000/svg">
<path d="M40.4062 35.2203H39.6875V18.6891C39.6871 18.6126 39.6718 18.537 39.6425 18.4664C39.4066 13.6811 37.3397 9.16978 33.8695 5.86635C30.3994 2.56293 25.7918 0.7204 21.0008 0.720215C16.2097 0.72003 11.602 2.56221 8.13162 5.86536C4.66123 9.16852 2.59392 13.6797 2.35768 18.4649C2.33052 18.5367 2.31526 18.6124 2.3125 18.6891V35.2203H1.59375C1.49935 35.2202 1.40586 35.2388 1.31863 35.2749C1.2314 35.311 1.15215 35.3639 1.08539 35.4307C1.01864 35.4975 0.965701 35.5767 0.9296 35.6639C0.893499 35.7512 0.874945 35.8447 0.875 35.9391V40.2516C0.874945 40.346 0.893499 40.4394 0.9296 40.5267C0.965701 40.6139 1.01864 40.6932 1.08539 40.7599C1.15215 40.8267 1.2314 40.8796 1.31863 40.9157C1.40586 40.9518 1.49935 40.9704 1.59375 40.9703H40.4062C40.5007 40.9704 40.5941 40.9518 40.6814 40.9157C40.7686 40.8796 40.8479 40.8267 40.9146 40.7599C40.9814 40.6932 41.0343 40.6139 41.0704 40.5267C41.1065 40.4394 41.1251 40.346 41.125 40.2516V35.9391C41.1251 35.8447 41.1065 35.7512 41.0704 35.6639C41.0343 35.5767 40.9814 35.4975 40.9146 35.4307C40.8479 35.3639 40.7686 35.311 40.6814 35.2749C40.5941 35.2388 40.5007 35.2202 40.4062 35.2203ZM10.9375 35.2203V19.4078C10.9375 16.7391 11.9977 14.1796 13.8847 12.2925C15.7718 10.4055 18.3313 9.3453 21 9.3453C23.6687 9.3453 26.2282 10.4055 28.1153 12.2925C30.0023 14.1796 31.0625 16.7391 31.0625 19.4078V35.2203H10.9375ZM9.5 23.78H3.75V19.4078H9.5V23.78ZM3.75 25.2175H9.5V29.53H3.75V25.2175ZM25.7507 8.94742C25.6078 8.88231 25.4658 8.8166 25.3199 8.75721C25.1273 8.67876 24.9304 8.60998 24.7327 8.5419C24.5877 8.49189 24.4443 8.43925 24.2968 8.39503C24.0868 8.33204 23.8722 8.28132 23.6574 8.23026C23.5156 8.19657 23.376 8.1577 23.2321 8.12928C22.9919 8.08184 22.7471 8.0497 22.5018 8.0175C22.3778 8.00118 22.2563 7.97749 22.1311 7.96512C21.9951 7.95169 21.8562 7.95011 21.7188 7.94151V2.19184C24.2168 2.28385 26.6649 2.91772 28.8937 4.04955L26.2366 9.17755C26.0774 9.09568 25.914 9.02199 25.7507 8.94742ZM20.2812 7.9415C20.1439 7.95012 20.0049 7.95168 19.8689 7.9651C19.7437 7.97748 19.6222 8.00117 19.4982 8.01748C19.253 8.04968 19.0081 8.0818 18.7679 8.12926C18.624 8.1577 18.4845 8.19655 18.3426 8.23025C18.1278 8.28131 17.9132 8.33202 17.7032 8.39502C17.5557 8.43923 17.4123 8.49187 17.2673 8.54188C17.0696 8.60996 16.8728 8.67875 16.6801 8.75719C16.5342 8.81659 16.3922 8.88226 16.2493 8.9474C16.086 9.02198 15.9226 9.09568 15.7634 9.17755L13.1063 4.04955C15.3351 2.91772 17.7832 2.28385 20.2812 2.19184V7.9415ZM32.5 25.2175H38.25V29.53H32.5V25.2175ZM38.25 19.4078V23.78H32.5V19.4078H38.25ZM32.5 30.9675H38.25V35.2203H32.5V30.9675ZM32.4102 17.9703C32.3886 17.7978 32.3512 17.6306 32.3222 17.4606C32.2963 17.3098 32.2759 17.1575 32.2442 17.0088C32.1944 16.7752 32.1303 16.5475 32.0665 16.3193C32.0324 16.1972 32.0053 16.072 31.9673 15.9515C31.8588 15.6079 31.7354 15.2713 31.597 14.9417C31.5884 14.9214 31.5777 14.9024 31.569 14.8823C31.5015 14.7252 31.4229 14.5743 31.3487 14.421L36.0998 11.0675C37.2743 13.195 37.9829 15.548 38.1784 17.9703H32.4102ZM35.3543 9.83427L30.6474 13.1578C30.6245 13.1225 30.5998 13.0886 30.5764 13.0536C30.4969 12.9341 30.4092 12.8211 30.3254 12.7049C30.2013 12.5327 30.0777 12.3606 29.9445 12.1957C29.8489 12.0774 29.747 11.9653 29.6469 11.851C29.513 11.6981 29.3789 11.5461 29.2372 11.4004C29.1286 11.2886 29.0153 11.1822 28.9023 11.0749C28.7574 10.9376 28.6114 10.8023 28.4597 10.6724C28.3396 10.5698 28.2166 10.4715 28.0924 10.3738C27.9367 10.2513 27.7788 10.1323 27.6168 10.0178C27.5688 9.98397 27.5245 9.94563 27.4759 9.91247L30.1454 4.76047C32.2243 6.06009 34.0005 7.79022 35.3543 9.83427ZM11.8545 4.76038L14.5241 9.91238C14.4755 9.94555 14.4312 9.98388 14.3832 10.0178C14.2211 10.1322 14.0632 10.2512 13.9076 10.3737C13.7833 10.4715 13.6603 10.5697 13.5403 10.6724C13.3886 10.8021 13.2425 10.9374 13.0977 11.0749C12.9846 11.1821 12.8713 11.2885 12.7627 11.4003C12.6211 11.546 12.487 11.698 12.353 11.8509C12.253 11.9652 12.1511 12.0774 12.0555 12.1956C11.9223 12.3605 11.7987 12.5326 11.6745 12.7048C11.5907 12.821 11.5031 12.934 11.4235 13.0535C11.4002 13.0885 11.3754 13.1224 11.3525 13.1577L6.6457 9.83427C7.99947 7.79019 9.77564 6.06004 11.8545 4.76038ZM5.9002 11.0675L10.6513 14.4209C10.5772 14.5743 10.4985 14.7252 10.431 14.8823C10.4224 14.9024 10.4116 14.9214 10.403 14.9417C10.2638 15.2706 10.1404 15.6072 10.0327 15.9514C9.99466 16.072 9.96763 16.1971 9.93355 16.3193C9.86977 16.5474 9.80561 16.7752 9.75588 17.0088C9.72412 17.1575 9.70377 17.3098 9.67788 17.4605C9.64875 17.6306 9.61146 17.7978 9.58987 17.9703H3.82159C4.01714 15.548 4.72569 13.195 5.9002 11.0675ZM3.75 30.9675H9.5V35.2203H3.75V30.9675ZM39.6875 39.5328H2.3125V36.6578H39.6875V39.5328Z" fill="#BFA583"/>
<path d="M29.625 25.1576L29.6221 22.2174C29.5716 21.6608 29.2515 18.844 27.9207 18.0677C27.8293 18.0145 27.7273 17.982 27.6219 17.9727C27.5165 17.9634 27.4104 17.9774 27.311 18.0138C27.2117 18.0502 27.1216 18.1081 27.0472 18.1833C26.9728 18.2585 26.9159 18.3491 26.8805 18.4488L26.3372 19.9832C24.5502 13.36 17.5915 12.2398 17.5115 12.2279C17.3311 12.2013 17.1474 12.2443 16.9975 12.3481C16.8476 12.4519 16.7428 12.6087 16.7043 12.7869C16.6657 12.9651 16.6963 13.1513 16.7899 13.3078C16.8835 13.4642 17.033 13.5793 17.2082 13.6296C19.5316 14.295 19.6832 17.0128 19.561 18.6068C19.014 18.2671 18.4054 18.0386 17.7699 17.9343C17.1345 17.83 16.4848 17.8519 15.8578 17.9989C15.7191 18.0392 15.5956 18.1205 15.5037 18.232C15.4118 18.3435 15.3557 18.4802 15.3426 18.6242C15.3296 18.7681 15.3603 18.9126 15.4306 19.0389C15.501 19.1651 15.6078 19.2672 15.7371 19.3318C16.4966 19.7108 16.2172 21.2775 15.8101 22.4918C15.0125 21.9809 14.1062 21.6642 13.1639 21.5674C13.0641 21.5575 12.9633 21.5686 12.868 21.6001C12.7727 21.6315 12.6851 21.6826 12.6107 21.75C12.5364 21.8174 12.477 21.8996 12.4364 21.9913C12.3958 22.0831 12.3749 22.1823 12.375 22.2826V25.1576C12.3757 26.5819 12.7294 27.9839 13.4042 29.2381C14.0791 30.4923 15.0543 31.5598 16.2425 32.3451H14.5313C14.3406 32.3451 14.1578 32.4209 14.023 32.5557C13.8882 32.6905 13.8125 32.8733 13.8125 33.0639C13.8125 33.2545 13.8882 33.4373 14.023 33.5721C14.1578 33.7069 14.3406 33.7826 14.5313 33.7826H27.4688C27.6594 33.7826 27.8422 33.7069 27.977 33.5721C28.1118 33.4373 28.1875 33.2545 28.1875 33.0639C28.1875 32.8733 28.1118 32.6905 27.977 32.5557C27.8422 32.4209 27.6594 32.3451 27.4688 32.3451H25.7575C26.9457 31.5598 27.9209 30.4923 28.5958 29.2381C29.2706 27.9839 29.6243 26.5819 29.625 25.1576ZM21 32.3451C19.0944 32.3429 17.2676 31.5849 15.9201 30.2375C14.5727 28.8901 13.8147 27.0632 13.8125 25.1576V23.1523C14.4536 23.2673 15.0276 23.62 15.4199 24.1399C15.4841 24.2564 15.5782 24.3538 15.6923 24.4221C15.8065 24.4904 15.9368 24.5272 16.0698 24.5288C16.2035 24.5265 16.3339 24.4871 16.4465 24.415C16.5591 24.3428 16.6493 24.2408 16.7072 24.1202C16.8854 23.7461 18.0872 21.1245 17.4989 19.3487C18.2976 19.4832 19.0319 19.8711 19.5933 20.4549C19.6841 20.5458 19.7977 20.6107 19.9221 20.6428C20.0465 20.6749 20.1772 20.6731 20.3007 20.6374C20.4242 20.6018 20.5358 20.5337 20.624 20.4402C20.7121 20.3468 20.7736 20.2314 20.802 20.106C21.2208 18.3326 21.1001 16.4745 20.4553 14.7702C21.9563 15.5513 23.2077 16.7386 24.0665 18.1966C24.9253 19.6546 25.3571 21.3246 25.3125 23.0161C25.316 23.1844 25.3784 23.3461 25.4889 23.4731C25.5993 23.6001 25.7508 23.6843 25.917 23.7111C26.0831 23.7379 26.2534 23.7056 26.3982 23.6198C26.543 23.534 26.6531 23.4001 26.7093 23.2414L27.7608 20.2717C27.9778 20.9239 28.1209 21.5985 28.1875 22.2826V25.1576C28.1853 27.0632 27.4273 28.8901 26.0799 30.2375C24.7324 31.5849 22.9056 32.3429 21 32.3451Z" fill="#BFA583"/>
</svg>
