<svg width="48" height="46" viewBox="0 0 48 46" fill="none" xmlns="http://www.w3.org/2000/svg">
<path d="M47.625 33.0643V25.969C47.6251 25.8582 47.6033 25.7484 47.5609 25.646C47.5185 25.5436 47.4564 25.4506 47.378 25.3722C47.2997 25.2939 47.2066 25.2317 47.1042 25.1894C47.0018 25.147 46.8921 25.1252 46.7812 25.1253H44.7856C41.9858 25.1284 39.3016 26.2419 37.3219 28.2217C35.3422 30.2014 34.2286 32.8856 34.2255 35.6853C34.2255 35.7961 34.2472 35.9059 34.2896 36.0083C34.332 36.1107 34.3941 36.2037 34.4725 36.2821C34.5509 36.3604 34.6439 36.4226 34.7463 36.465C34.8487 36.5073 34.9585 36.5291 35.0693 36.5291H37.6541L35.3302 43.4307H29.5V42.1057C29.5001 41.9949 29.4783 41.8852 29.4359 41.7828C29.3936 41.6804 29.3314 41.5873 29.253 41.509C29.1747 41.4306 29.0816 41.3685 28.9792 41.3261C28.8768 41.2837 28.7671 41.2619 28.6563 41.262H26.6367V34.1865H30.174C30.796 34.1796 31.3901 33.9278 31.8274 33.4856C32.2648 33.0434 32.5101 32.4465 32.51 31.8246C32.51 31.2026 32.2647 30.6058 31.8274 30.1636C31.39 29.7214 30.7959 29.4695 30.174 29.4627H25.465V17.2184H27.5266C28.1072 17.259 28.6877 17.1393 29.2049 16.8723C29.722 16.6054 30.1559 16.2015 30.4591 15.7048L30.9551 14.6847H31.4245L31.9653 15.7814C32.2228 16.236 32.6007 16.6107 33.0575 16.8643C33.5143 17.1179 34.0323 17.2404 34.5543 17.2184H39.5715C40.1158 17.2427 40.6554 17.1084 41.1248 16.8318C41.5942 16.5552 41.9732 16.1482 42.2156 15.6603L42.8361 14.1714C43.2557 6.67695 35.2523 0.580261 25.7321 0.572431C25.3337 0.583914 24.531 0.564204 24.1327 0.57249C14.613 0.199283 6.08095 6.26817 6.16639 13.841C6.39304 14.5123 6.68055 15.1616 7.02533 15.7806C7.28253 16.2355 7.6604 16.6105 8.11725 16.8642C8.57409 17.1179 9.09215 17.2405 9.61426 17.2184H14.6318C15.1761 17.2427 15.7157 17.1084 16.185 16.8318C16.6544 16.5552 17.0332 16.1482 17.2756 15.6603L17.6824 14.6847H18.1545L18.8114 15.8284C19.1314 16.285 19.5627 16.6524 20.0644 16.8957C20.5662 17.1389 21.1217 17.25 21.6784 17.2184H23.7779V29.4627H18.8959C18.274 29.4696 17.68 29.7215 17.2428 30.1637C16.8055 30.6059 16.5603 31.2027 16.5603 31.8246C16.5603 32.4465 16.8055 33.0433 17.2428 33.4855C17.6801 33.9277 18.2741 34.1796 18.896 34.1865H22.4332V41.262H20.4141C20.3033 41.2619 20.1935 41.2837 20.0911 41.3261C19.9888 41.3685 19.8957 41.4307 19.8174 41.509C19.739 41.5874 19.6769 41.6804 19.6345 41.7828C19.5921 41.8852 19.5703 41.9949 19.5703 42.1057V43.4307H12.6698L10.3462 36.5291H12.9311C13.0419 36.5291 13.1517 36.5073 13.2541 36.4649C13.3564 36.4225 13.4495 36.3603 13.5278 36.282C13.6062 36.2036 13.6683 36.1106 13.7107 36.0082C13.7531 35.9058 13.7749 35.7961 13.7749 35.6853C13.7717 32.8854 12.658 30.2012 10.6781 28.2215C8.6982 26.2418 6.01386 25.1283 3.21401 25.1253H1.21875C1.10794 25.1252 0.998208 25.147 0.895826 25.1894C0.793444 25.2318 0.700417 25.294 0.622062 25.3723C0.543707 25.4507 0.481558 25.5437 0.439166 25.6461C0.396774 25.7485 0.37497 25.8582 0.375 25.969V33.0643C0.376372 33.9764 0.737186 34.8513 1.37923 35.4992C2.02127 36.1471 2.8928 36.5158 3.80489 36.5255L1.28673 44.005C1.24678 44.1319 1.23693 44.2663 1.25799 44.3977C1.27904 44.529 1.33041 44.6536 1.40802 44.7617C1.48564 44.8697 1.58735 44.9582 1.70511 45.0201C1.82287 45.0819 1.95342 45.1155 2.08642 45.1182C16.1275 45.1165 31.8749 45.1194 45.9136 45.1182C46.0466 45.1156 46.1772 45.0821 46.295 45.0203C46.4128 44.9584 46.5146 44.8699 46.5922 44.7618C46.6698 44.6537 46.7211 44.5291 46.742 44.3977C46.763 44.2663 46.753 44.1318 46.7128 44.005L44.1943 36.5255C45.1065 36.5159 45.9782 36.1473 46.6204 35.4993C47.2626 34.8514 47.6235 33.9765 47.625 33.0643ZM39.5715 15.5309H34.5543C34.3475 15.5476 34.14 15.5107 33.9516 15.4238C33.7633 15.3369 33.6005 15.203 33.479 15.0349L33.3065 14.6847H40.7943C40.7302 14.9514 40.57 15.1852 40.3444 15.3413C40.1189 15.4973 39.8437 15.5649 39.5715 15.5309ZM41.1758 12.9972H31.2511C31.1199 8.43709 29.9397 4.57487 28.1922 2.41842C35.1998 3.26037 40.6553 7.61985 41.1758 12.9972ZM24.9377 2.25996C27.0429 2.25996 29.3789 6.62703 29.5709 12.9972H19.4994C19.6906 6.62703 22.027 2.25996 24.1326 2.25996H24.9377ZM20.878 2.41837C19.1304 4.57482 17.9502 8.43704 17.8189 12.9972C17.8132 12.9972 7.89459 12.9972 7.89459 12.9972C8.41467 7.61977 13.8705 3.26032 20.878 2.41837ZM15.7182 15.011C15.6006 15.1872 15.4376 15.3286 15.2464 15.42C15.0552 15.5115 14.8429 15.5498 14.6318 15.5309H9.61423C9.34007 15.5583 9.06498 15.4886 8.83695 15.334C8.60891 15.1793 8.4424 14.9495 8.36645 14.6847H15.8543L15.7182 15.011ZM20.2748 14.9879L20.1007 14.6847H29.0787C28.8796 15.2354 28.4469 15.4937 27.5266 15.5309H21.6785C21.4185 15.554 21.1568 15.517 20.9134 15.4228C20.6701 15.3287 20.4516 15.1799 20.2748 14.9879ZM18.2211 31.825C18.2212 31.6461 18.2924 31.4745 18.4189 31.348C18.5454 31.2215 18.717 31.1503 18.8959 31.1502H30.174C30.3507 31.1535 30.519 31.2261 30.6427 31.3522C30.7664 31.4783 30.8357 31.6479 30.8357 31.8246C30.8357 32.0013 30.7664 32.1709 30.6427 32.297C30.5189 32.4231 30.3506 32.4956 30.174 32.499H25.793C24.2459 32.5 20.4818 32.4983 18.8958 32.499C18.7171 32.4989 18.5456 32.4279 18.4191 32.3015C18.2926 32.1752 18.2214 32.0038 18.2211 31.825ZM24.1207 34.1865H24.9492V41.262H24.1207V34.1865ZM2.0625 33.0643V26.8128C3.24558 26.6827 4.44271 26.7873 5.58529 27.1206C6.72787 27.4539 7.79346 28.0094 8.72099 28.7553C9.64853 29.5011 10.4198 30.4227 10.9906 31.4671C11.5614 32.5115 11.9205 33.6583 12.0474 34.8417L3.84021 34.8416C3.36897 34.841 2.91719 34.6536 2.58393 34.3204C2.25068 33.9872 2.06316 33.5355 2.0625 33.0643ZM3.26056 43.4307L5.58417 36.5291H8.56572L10.8893 43.4307H3.26056ZM21.2578 43.4307V42.9495C21.2578 42.9495 26.7029 42.9493 27.8125 42.9495V43.4307H21.2578ZM37.1103 43.4307L39.4347 36.5291H42.415L44.7394 43.4307H37.1103ZM45.9375 33.0643C45.9368 33.5356 45.7492 33.9874 45.4159 34.3205C45.0826 34.6537 44.6307 34.8411 44.1594 34.8416H35.9526C36.0795 33.6582 36.4386 32.5114 37.0095 31.4671C37.5803 30.4227 38.3516 29.5012 39.2791 28.7554C40.2066 28.0096 41.2722 27.4541 42.4148 27.1208C43.5573 26.7874 44.7544 26.6828 45.9375 26.8129V33.0643Z" fill="#BFA583"/>
</svg>
