<svg width="57" height="41" viewBox="0 0 57 41" fill="none" xmlns="http://www.w3.org/2000/svg">
<path d="M55.7328 37.7228H52.0203C50.8653 27.4553 51.6378 17.1878 54.3228 7.19779C54.5028 6.51529 54.1053 5.81779 53.4228 5.63779C52.7403 5.45779 52.0428 5.85529 51.8628 6.53779C50.4453 11.8178 49.5303 17.2703 49.1553 22.7378C48.8103 27.7253 48.9153 32.7578 49.4553 37.7228H45.6678C47.4453 31.3778 47.0928 24.6128 44.6253 18.4778C43.2828 15.1403 41.3628 12.1103 38.9853 9.49279C39.5778 7.28029 40.2903 5.09779 41.1228 2.94529C41.3778 2.28529 41.0478 1.55029 40.3953 1.29529C39.7353 1.04029 39.0003 1.37029 38.7453 2.02279C38.0553 3.80779 37.4478 5.60779 36.9153 7.43029C34.9953 5.69779 32.8503 4.21279 30.5103 3.01279C29.8803 2.69029 29.1153 2.93779 28.7928 3.56779C28.4703 4.19779 28.7178 4.96279 29.3478 5.28529C31.9203 6.59779 34.2003 8.28529 36.1578 10.2503C33.9678 19.2278 33.6678 28.5653 35.3103 37.7228H30.6453C31.8378 32.7653 32.0328 27.5453 31.2078 22.5128C30.2928 16.9253 28.1103 11.5178 24.8853 6.87529C24.4878 6.29779 23.6928 6.15529 23.1078 6.55279C22.5303 6.95029 22.3878 7.74529 22.7853 8.33029C28.7553 16.9478 30.6378 27.6128 28.0053 37.7303H25.7253C25.0203 37.7303 24.4503 38.3003 24.4503 39.0053C24.4503 39.7103 25.0203 40.2803 25.7253 40.2803H28.9728H28.9803H28.9878H36.8328H36.8403C36.8403 40.2803 36.8403 40.2803 36.8478 40.2803H39.5628C40.2678 40.2803 40.8378 39.7103 40.8378 39.0053C40.8378 38.3003 40.2678 37.7303 39.5628 37.7303H37.8903C36.3303 29.3753 36.4503 20.8403 38.2278 12.5978C43.8903 19.7453 45.8478 29.5403 42.7278 38.5928C42.7278 38.6003 42.7278 38.6003 42.7203 38.6078C42.7128 38.6303 42.7053 38.6603 42.6978 38.6828C42.6903 38.6978 42.6903 38.7128 42.6828 38.7353C42.6753 38.7578 42.6753 38.7803 42.6678 38.8028C42.6678 38.8253 42.6603 38.8478 42.6603 38.8703C42.6603 38.8853 42.6603 38.9003 42.6528 38.9228C42.6528 38.9528 42.6453 38.9753 42.6453 39.0053C42.6453 39.0128 42.6453 39.0128 42.6453 39.0203C42.6453 39.0278 42.6453 39.0428 42.6453 39.0503C42.6453 39.0803 42.6453 39.1028 42.6528 39.1328C42.6528 39.1478 42.6603 39.1703 42.6603 39.1853C42.6603 39.2078 42.6678 39.2303 42.6678 39.2528C42.6753 39.2753 42.6753 39.2903 42.6828 39.3128C42.6903 39.3353 42.6903 39.3503 42.6978 39.3728C42.7053 39.3953 42.7128 39.4178 42.7203 39.4403C42.7278 39.4553 42.7353 39.4703 42.7353 39.4853C42.7428 39.5078 42.7503 39.5303 42.7653 39.5528C42.7728 39.5678 42.7803 39.5828 42.7878 39.5978C42.7953 39.6203 42.8103 39.6428 42.8178 39.6578C42.8253 39.6728 42.8403 39.6878 42.8478 39.7028C42.8628 39.7178 42.8703 39.7403 42.8853 39.7553C42.9003 39.7703 42.9078 39.7928 42.9228 39.8078C42.9378 39.8228 42.9453 39.8378 42.9603 39.8528C42.9753 39.8678 42.9903 39.8903 43.0053 39.9053C43.0203 39.9203 43.0278 39.9278 43.0428 39.9428C43.0578 39.9578 43.0803 39.9728 43.0953 39.9878C43.1103 40.0028 43.1253 40.0103 43.1328 40.0178C43.1478 40.0328 43.1703 40.0478 43.1853 40.0628C43.2003 40.0778 43.2153 40.0853 43.2378 40.0928C43.2528 40.1003 43.2753 40.1153 43.2903 40.1228C43.3128 40.1378 43.3353 40.1453 43.3503 40.1528C43.3653 40.1603 43.3803 40.1678 43.3953 40.1753C43.4178 40.1903 43.4478 40.1978 43.4703 40.2053C43.4778 40.2053 43.4853 40.2128 43.5003 40.2128C43.5078 40.2128 43.5078 40.2128 43.5153 40.2203C43.5303 40.2278 43.5528 40.2353 43.5678 40.2353C43.5903 40.2428 43.6053 40.2428 43.6278 40.2503C43.6428 40.2503 43.6578 40.2578 43.6728 40.2578C43.7028 40.2653 43.7253 40.2653 43.7553 40.2728C43.7628 40.2728 43.7778 40.2728 43.7853 40.2803C43.8228 40.2878 43.8678 40.2878 43.9053 40.2878H43.9128H50.8428C50.8428 40.2878 50.8428 40.2878 50.8503 40.2878H55.6953C56.4003 40.2878 56.9703 39.7178 56.9703 39.0128C57.0078 38.2928 56.4378 37.7228 55.7328 37.7228Z" fill="#BFA583"/>
<path d="M22.4774 39.7102C22.4849 39.7027 22.4849 39.6952 22.4924 39.6877C22.5074 39.6652 22.5224 39.6352 22.5374 39.6127C22.5449 39.5977 22.5524 39.5902 22.5599 39.5752C22.5674 39.5527 22.5824 39.5377 22.5899 39.5152C22.5974 39.5002 22.6049 39.4852 22.6124 39.4702C22.6124 39.4627 22.6199 39.4627 22.6199 39.4552C23.7974 36.4402 24.4424 33.2827 24.5474 30.0652C24.6449 26.9302 24.2249 23.8102 23.3024 20.8102C22.3724 17.8027 20.9699 14.9977 19.1174 12.4627C18.4949 11.6077 17.8199 10.7902 17.1074 10.0177C17.7674 7.39266 18.6224 4.81266 19.6724 2.30766C19.9424 1.65516 19.6424 0.912659 18.9899 0.635159C18.3374 0.365159 17.5949 0.66516 17.3174 1.31766C16.4099 3.49266 15.6374 5.71266 15.0074 7.97016C14.1299 7.19016 13.1924 6.47016 12.2174 5.80266C11.6324 5.40516 10.8449 5.55516 10.4474 6.14016C10.0499 6.72516 10.1999 7.51266 10.7849 7.91016C12.0599 8.77266 13.2299 9.74016 14.3024 10.7827C12.3149 19.6252 12.4499 28.8877 14.7524 37.7152H12.5549C12.5624 33.7027 11.7374 29.6752 10.1474 25.9927C8.37743 21.9052 5.65493 18.2077 2.27243 15.3052C1.73993 14.8477 0.929933 14.9077 0.472433 15.4477C0.0149333 15.9802 0.0749328 16.7902 0.614933 17.2477C6.65993 22.4227 10.0424 29.8252 10.0124 37.7227H3.80243C3.09743 37.7227 2.52743 38.2927 2.52743 38.9977C2.52743 39.7027 3.09743 40.2727 3.80243 40.2727H11.2574H16.4249H16.4324H16.4399H21.4274H21.4349C21.4724 40.2727 21.5174 40.2727 21.5549 40.2652C21.5624 40.2652 21.5699 40.2652 21.5849 40.2652C21.6149 40.2652 21.6449 40.2577 21.6749 40.2502C21.6899 40.2502 21.6974 40.2427 21.7124 40.2427C21.7499 40.2352 21.7799 40.2277 21.8174 40.2127C21.8324 40.2052 21.8399 40.2052 21.8549 40.1977C21.8774 40.1902 21.8999 40.1827 21.9224 40.1752C21.9374 40.1677 21.9524 40.1602 21.9674 40.1527C21.9899 40.1452 22.0049 40.1377 22.0274 40.1227C22.0424 40.1152 22.0574 40.1077 22.0649 40.1002C22.0949 40.0852 22.1249 40.0627 22.1549 40.0477C22.1549 40.0477 22.1624 40.0477 22.1624 40.0402C22.1924 40.0177 22.2224 40.0027 22.2449 39.9802C22.2524 39.9727 22.2599 39.9652 22.2674 39.9652C22.2899 39.9427 22.3124 39.9277 22.3349 39.9052C22.3424 39.8977 22.3499 39.8977 22.3499 39.8902C22.3724 39.8677 22.4024 39.8377 22.4249 39.8077C22.4324 39.7777 22.4549 39.7402 22.4774 39.7102ZM16.4174 13.1152C21.8699 19.9102 23.5649 29.1502 20.5349 37.7227H17.3849C15.1799 29.6752 14.8724 21.2377 16.4174 13.1152Z" fill="#BFA583"/>
</svg>
