<svg width="52" height="45" viewBox="0 0 52 45" fill="none" xmlns="http://www.w3.org/2000/svg">
<path d="M44.5003 18.0443C44.3595 16.6296 43.9256 15.2597 43.2262 14.022C42.5267 12.7843 41.577 11.7058 40.4377 10.8554C39.2984 10.005 37.9944 9.40133 36.6089 9.0828C35.2233 8.76427 33.7866 8.73789 32.3903 9.00535C31.4237 9.04874 30.4703 9.24694 29.5664 9.59238C28.9561 6.97121 27.4313 4.65349 25.2658 3.05544C23.1003 1.4574 20.436 0.68372 17.7514 0.873344C15.0668 1.06297 12.5377 2.20347 10.6184 4.09005C8.69903 5.97662 7.51514 8.48566 7.2793 11.1666C5.22804 11.3522 3.32737 12.3217 1.97299 13.8734C0.618599 15.4251 -0.0851537 17.4394 0.00823544 19.4969C0.101625 21.5544 0.984959 23.4967 2.47435 24.9193C3.96374 26.3419 5.94442 27.1353 8.00406 27.1343H13.8459C14.4239 28.7245 15.4768 30.0986 16.862 31.0703C18.2472 32.042 19.8977 32.5642 21.5897 32.5663H43.7219C45.5856 32.5663 47.3785 31.8517 48.7312 30.5696C50.084 29.2875 50.8936 27.5355 50.9933 25.6743C51.0931 23.8132 50.4754 21.9847 49.2675 20.5653C48.0596 19.1459 46.3534 18.2438 44.5003 18.0446V18.0443ZM13.3539 24.33C13.3539 24.3797 13.3567 24.4286 13.3576 24.478H8.11376C8.07232 24.476 8.03168 24.4765 7.98799 24.478C7.28624 24.4769 6.59157 24.3377 5.94365 24.0682C5.29572 23.7986 4.70723 23.4041 4.21177 22.9072C3.21113 21.9035 2.65018 20.5435 2.65231 19.1263C2.65444 17.709 3.21948 16.3507 4.22313 15.35C5.22678 14.3494 6.58682 13.7885 8.00406 13.7906C8.14696 13.7906 8.29518 13.7974 8.45708 13.811C8.64433 13.827 8.83284 13.803 9.01014 13.7407C9.18744 13.6785 9.34951 13.5792 9.48562 13.4497C9.62174 13.3201 9.72881 13.1631 9.79975 12.9891C9.87069 12.8151 9.9039 12.628 9.89717 12.4401C9.89371 12.3457 9.89265 12.2514 9.89265 12.157C9.89196 9.90149 10.7718 7.73483 12.3449 6.11843C13.918 4.50203 16.0599 3.56361 18.3146 3.50301C20.5693 3.44242 22.7586 4.26444 24.4162 5.79401C26.0738 7.32359 27.0688 9.43986 27.1892 11.6921C27.1892 11.6976 27.1908 11.7026 27.1912 11.7081C25.8163 13.0365 24.8424 14.7247 24.3806 16.5799C23.137 16.133 21.8041 15.9917 20.4945 16.168C19.1848 16.3443 17.9367 16.833 16.8556 17.5929C15.7744 18.3528 14.8919 19.3616 14.2825 20.5342C13.673 21.7067 13.3545 23.0087 13.3539 24.3302V24.33ZM43.7369 29.91C43.7205 29.91 43.7042 29.909 43.6877 29.9088C43.6653 29.9088 43.6432 29.9088 43.6213 29.91H21.5897C20.7188 29.9101 19.8599 29.7062 19.0819 29.3148C18.3038 28.9234 17.6282 28.3553 17.1091 27.656C16.59 26.9566 16.2418 26.1455 16.0924 25.2874C15.943 24.4294 15.9965 23.5483 16.2487 22.7147C16.5009 21.881 16.9448 21.118 17.5447 20.4867C18.1447 19.8553 18.8841 19.3732 19.7038 19.0789C20.5235 18.7845 21.4007 18.6862 22.2653 18.7917C23.1298 18.8972 23.9576 19.2036 24.6825 19.6864C24.8776 19.8166 25.1036 19.8928 25.3377 19.9073C25.5718 19.9218 25.8055 19.8741 26.0152 19.769C26.2248 19.6639 26.4029 19.5051 26.5313 19.3089C26.6597 19.1126 26.7338 18.8859 26.7462 18.6517C26.8526 16.6799 27.7244 14.8275 29.1759 13.4888C30.6274 12.1501 32.5441 11.4306 34.518 11.4837C36.4919 11.5367 38.3672 12.358 39.7448 13.7727C41.1223 15.1875 41.8934 17.084 41.8938 19.0586C41.8938 19.1429 41.892 19.2267 41.8892 19.3103C41.8829 19.4977 41.9164 19.6843 41.9874 19.8579C42.0584 20.0314 42.1654 20.188 42.3013 20.3172C42.4372 20.4464 42.5989 20.5454 42.7758 20.6076C42.9527 20.6699 43.1408 20.6939 43.3277 20.6782C43.4738 20.6662 43.6021 20.6602 43.7219 20.6602C44.9381 20.674 46.0998 21.1664 46.9557 22.0306C47.8115 22.8949 48.2925 24.0614 48.2944 25.2777C48.2964 26.494 47.8192 27.6621 46.9662 28.5291C46.1132 29.3961 44.953 29.8922 43.7369 29.91Z" fill="#BFA583"/>
<path d="M11.1602 32.9429H2.26172C1.90948 32.9429 1.57166 32.8029 1.32259 32.5539C1.07352 32.3048 0.933594 31.967 0.933594 31.6147C0.933594 31.2625 1.07352 30.9247 1.32259 30.6756C1.57166 30.4265 1.90948 30.2866 2.26172 30.2866H11.1602C11.5124 30.2866 11.8502 30.4265 12.0993 30.6756C12.3484 30.9247 12.4883 31.2625 12.4883 31.6147C12.4883 31.967 12.3484 32.3048 12.0993 32.5539C11.8502 32.8029 11.5124 32.9429 11.1602 32.9429Z" fill="#BFA583"/>
<path d="M45.0273 38.521H21.7852C21.4329 38.521 21.0951 38.3811 20.846 38.132C20.597 37.8829 20.457 37.5451 20.457 37.1929C20.457 36.8406 20.597 36.5028 20.846 36.2537C21.0951 36.0047 21.4329 35.8647 21.7852 35.8647H45.0273C45.3796 35.8647 45.7174 36.0047 45.9665 36.2537C46.2155 36.5028 46.3555 36.8406 46.3555 37.1929C46.3555 37.5451 46.2155 37.8829 45.9665 38.132C45.7174 38.3811 45.3796 38.521 45.0273 38.521Z" fill="#BFA583"/>
<path d="M47.9492 44.0991H32.0117C31.6595 44.0991 31.3217 43.9592 31.0726 43.7101C30.8235 43.4611 30.6836 43.1232 30.6836 42.771C30.6836 42.4188 30.8235 42.0809 31.0726 41.8319C31.3217 41.5828 31.6595 41.4429 32.0117 41.4429H47.9492C48.3015 41.4429 48.6393 41.5828 48.8883 41.8319C49.1374 42.0809 49.2773 42.4188 49.2773 42.771C49.2773 43.1232 49.1374 43.4611 48.8883 43.7101C48.6393 43.9592 48.3015 44.0991 47.9492 44.0991Z" fill="#BFA583"/>
<path d="M26.5664 44.0991H10.6289C10.2767 44.0991 9.93885 43.9592 9.68978 43.7101C9.44071 43.4611 9.30078 43.1232 9.30078 42.771C9.30078 42.4188 9.44071 42.0809 9.68978 41.8319C9.93885 41.5828 10.2767 41.4429 10.6289 41.4429H26.5664C26.9186 41.4429 27.2565 41.5828 27.5055 41.8319C27.7546 42.0809 27.8945 42.4188 27.8945 42.771C27.8945 43.1232 27.7546 43.4611 27.5055 43.7101C27.2565 43.9592 26.9186 44.0991 26.5664 44.0991Z" fill="#BFA583"/>
</svg>
